# Blender v3.0.0 OBJ File: 'RealityShift.blend'
# www.blender.org
mtllib God machine Reality Tank.mtl
o Cube.004
v 2.879043 3.994111 -0.595933
v 3.254701 3.994111 -0.558934
v 2.879042 10.105263 -0.595933
v 2.503384 3.994111 -0.558934
v 2.879043 3.994111 -0.439090
v 3.224103 3.994111 -0.405104
v 2.533982 3.994111 -0.405104
v 2.879042 10.105263 -0.439090
v 3.224103 10.105262 -0.405104
v 2.533982 10.105262 -0.405104
v 2.202182 10.105263 -0.304454
v 2.503384 10.105263 -0.558934
v 2.142161 10.105263 -0.449358
v 1.809256 10.105263 -0.271417
v 2.142161 3.994111 -0.449358
v 1.809256 3.994111 -0.271417
v 2.202182 3.994111 -0.304454
v 1.896394 3.994111 -0.141006
v 1.628367 3.994111 0.078957
v 1.896394 10.105263 -0.141007
v 1.628367 10.105263 0.078957
v 1.408404 10.105263 0.346983
v 1.517463 10.105263 -0.031948
v 1.277994 10.105262 0.259846
v 1.517463 3.994111 -0.031948
v 1.277994 3.994111 0.259846
v 1.100053 3.994111 0.592750
v 1.408404 3.994111 0.346983
v 1.244957 3.994111 0.652771
v 1.144307 3.994111 0.984571
v 1.244957 10.105262 0.652771
v 1.144307 10.105263 0.984571
v 1.100053 10.105263 0.592750
v 0.990478 10.105263 0.953973
v 0.953478 10.105263 1.329632
v 0.990478 3.994111 0.953973
v 0.953478 3.994111 1.329632
v 0.990478 3.994111 1.705291
v 1.110321 3.994111 1.329632
v 1.144307 3.994111 1.674692
v 1.110321 10.105263 1.329632
v 1.144307 10.105262 1.674692
v 1.244957 10.105263 2.006493
v 0.990478 10.105263 1.705291
v 1.100053 10.105263 2.066514
v 1.277995 10.105263 2.399418
v 1.100053 3.994111 2.066514
v 1.277995 3.994111 2.399418
v 1.244957 3.994111 2.006492
v 1.408405 3.994111 2.312281
v 1.628368 3.994111 2.580307
v 1.408405 10.105262 2.312281
v 1.628368 10.105263 2.580307
v 1.896394 10.105263 2.800270
v 1.517463 10.105263 2.691211
v 1.809256 10.105263 2.930680
v 1.517463 3.994111 2.691211
v 1.809256 3.994111 2.930680
v 2.142161 3.994111 3.108621
v 1.896394 3.994111 2.800270
v 2.202182 3.994111 2.963717
v 2.533982 3.994111 3.064368
v 2.202182 10.105263 2.963717
v 2.533982 10.105263 3.064368
v 2.142161 10.105263 3.108621
v 2.503384 10.105263 3.218197
v 2.879042 10.105263 3.255196
v 2.503384 3.994111 3.218197
v 2.879043 3.994111 3.255196
v 3.254701 3.994111 3.218197
v 2.879043 3.994111 3.098353
v 3.224103 3.994111 3.064368
v 2.879042 10.105263 3.098353
v 3.224103 10.105263 3.064368
v 3.555903 10.105263 2.963717
v 3.254701 10.105263 3.218197
v 3.615924 10.105263 3.108621
v 3.948828 10.105263 2.930680
v 3.615924 3.994111 3.108621
v 3.948828 3.994111 2.930680
v 3.555903 3.994111 2.963717
v 3.861691 3.994111 2.800270
v 4.129717 3.994111 2.580307
v 3.861691 10.105263 2.800270
v 4.129717 10.105263 2.580307
v 4.349680 10.105262 2.312281
v 4.240622 10.105263 2.691211
v 4.480091 10.105263 2.399418
v 4.240622 3.994111 2.691211
v 4.480091 3.994111 2.399418
v 4.658032 3.994111 2.066513
v 4.349681 3.994111 2.312281
v 4.513128 3.994111 2.006492
v 4.613779 3.994111 1.674692
v 4.513128 10.105263 2.006492
v 4.613778 10.105261 1.674692
v 4.658032 10.105263 2.066513
v 4.767608 10.105262 1.705291
v 4.804607 10.105262 1.329632
v 4.767608 3.994111 1.705291
v 4.804607 3.994111 1.329632
v 4.767608 3.994111 0.953973
v 4.647764 3.994111 1.329632
v 4.613779 3.994111 0.984571
v 4.647764 10.105262 1.329632
v 4.613778 10.105262 0.984571
v 4.513128 10.105262 0.652771
v 4.767608 10.105262 0.953973
v 4.658032 10.105263 0.592750
v 4.480091 10.105262 0.259845
v 4.658032 3.994111 0.592750
v 4.480091 3.994111 0.259845
v 4.513128 3.994111 0.652771
v 4.349681 3.994111 0.346983
v 4.129717 3.994111 0.078957
v 4.349680 10.105263 0.346983
v 4.129717 10.105263 0.078957
v 3.861691 10.105263 -0.141007
v 4.240622 10.105263 -0.031948
v 3.948829 10.105263 -0.271417
v 4.240622 3.994111 -0.031948
v 3.948829 3.994111 -0.271417
v 3.615924 3.994111 -0.449358
v 3.861691 3.994111 -0.141006
v 3.555903 3.994111 -0.304454
v 3.555903 10.105263 -0.304454
v 3.615924 10.105263 -0.449358
v 3.254701 10.105263 -0.558933
vt 0.820183 0.129796
vt 0.824587 0.130230
vt 0.822509 0.140675
vt 0.818275 0.139390
vt 0.173223 0.369031
vt 0.173223 0.379681
vt 0.000810 0.379681
vt 0.000810 0.369031
vt 0.173223 0.390330
vt 0.000811 0.390331
vt 0.820183 0.120014
vt 0.824587 0.119580
vt 0.364302 0.355154
vt 0.536714 0.355154
vt 0.536714 0.364936
vt 0.364302 0.364936
vt 0.536715 0.374718
vt 0.364302 0.374719
vt 0.740893 0.829579
vt 0.749931 0.833322
vt 0.748647 0.837557
vt 0.738808 0.833481
vt 0.729953 0.827565
vt 0.732760 0.824144
vt 0.722422 0.820034
vt 0.725843 0.817227
vt 0.536715 0.384500
vt 0.364302 0.384501
vt 0.173224 0.400980
vt 0.000811 0.400980
vt 0.173224 0.411630
vt 0.000811 0.411630
vt 0.716505 0.811179
vt 0.720408 0.809093
vt 0.818275 0.110419
vt 0.814531 0.101382
vt 0.818434 0.099296
vt 0.822509 0.109135
vt 0.536715 0.394283
vt 0.364302 0.394283
vt 0.536715 0.404065
vt 0.364302 0.404066
vt 0.809096 0.093248
vt 0.812517 0.090441
vt 0.712430 0.801340
vt 0.716664 0.800056
vt 0.536715 0.413847
vt 0.364302 0.413848
vt 0.710352 0.790895
vt 0.714756 0.790461
vt 0.173224 0.422280
vt 0.173224 0.432929
vt 0.000811 0.432930
vt 0.000811 0.422280
vt 0.802179 0.086331
vt 0.804986 0.082910
vt 0.794046 0.080896
vt 0.796132 0.076994
vt 0.173224 0.443579
vt 0.000811 0.443579
vt 0.536715 0.423629
vt 0.364302 0.423631
vt 0.536715 0.433411
vt 0.364302 0.433413
vt 0.785008 0.077153
vt 0.786292 0.072918
vt 0.714756 0.780679
vt 0.710352 0.780245
vt 0.712430 0.769800
vt 0.716664 0.771085
vt 0.173224 0.454229
vt 0.000811 0.454229
vt 0.716505 0.759961
vt 0.720408 0.762047
vt 0.173224 0.464878
vt 0.000811 0.464879
vt 0.775414 0.075244
vt 0.775847 0.070841
vt 0.765631 0.075244
vt 0.765198 0.070841
vt 0.173224 0.475528
vt 0.000811 0.475529
vt 0.364302 0.443195
vt 0.536715 0.443194
vt 0.536715 0.452976
vt 0.364302 0.452978
vt 0.722422 0.751107
vt 0.725843 0.753914
vt 0.536715 0.462758
vt 0.364303 0.462760
vt 0.732760 0.746997
vt 0.729953 0.743576
vt 0.173224 0.486178
vt 0.000811 0.486179
vt 0.738807 0.737659
vt 0.740893 0.741562
vt 0.173224 0.496828
vt 0.000811 0.496828
vt 0.756037 0.077153
vt 0.746999 0.080896
vt 0.744914 0.076994
vt 0.754753 0.072918
vt 0.536715 0.472540
vt 0.364303 0.472542
vt 0.536715 0.482323
vt 0.364303 0.482324
vt 0.738866 0.086331
vt 0.736059 0.082910
vt 0.748646 0.733584
vt 0.749931 0.737818
vt 0.536715 0.492105
vt 0.364303 0.492106
vt 0.759091 0.731506
vt 0.759525 0.735910
vt 0.173224 0.507477
vt 0.173224 0.518127
vt 0.000811 0.518128
vt 0.000811 0.507478
vt 0.731949 0.093248
vt 0.728528 0.090441
vt 0.726514 0.101382
vt 0.722611 0.099296
vt 0.173224 0.528777
vt 0.000811 0.528778
vt 0.536716 0.501887
vt 0.364303 0.501889
vt 0.536716 0.511669
vt 0.364303 0.511671
vt 0.722770 0.110420
vt 0.718536 0.109135
vt 0.778902 0.737818
vt 0.769307 0.735910
vt 0.769741 0.731506
vt 0.780186 0.733584
vt 0.173224 0.539426
vt 0.000811 0.539427
vt 0.173224 0.198636
vt 0.173224 0.209285
vt 0.000811 0.209284
vt 0.000811 0.198635
vt 0.790025 0.737659
vt 0.787939 0.741561
vt 0.720862 0.120014
vt 0.716459 0.119580
vt 0.720862 0.129796
vt 0.716459 0.130230
vt 0.173224 0.219935
vt 0.000811 0.219934
vt 0.364303 0.208417
vt 0.536715 0.208420
vt 0.536715 0.218202
vt 0.364303 0.218200
vt 0.364303 0.198635
vt 0.536716 0.198638
vt 0.798880 0.743575
vt 0.796073 0.746996
vt 0.536715 0.227985
vt 0.364303 0.227982
vt 0.806411 0.751106
vt 0.802990 0.753913
vt 0.173224 0.230585
vt 0.000811 0.230584
vt 0.808425 0.762047
vt 0.812327 0.759961
vt 0.173224 0.241235
vt 0.000811 0.241234
vt 0.726514 0.148428
vt 0.722612 0.150514
vt 0.718536 0.140675
vt 0.722771 0.139390
vt 0.536715 0.237767
vt 0.364303 0.237765
vt 0.536715 0.247549
vt 0.364303 0.247547
vt 0.731949 0.156561
vt 0.728528 0.159369
vt 0.816403 0.769800
vt 0.812168 0.771084
vt 0.536715 0.257331
vt 0.364302 0.257330
vt 0.814077 0.780679
vt 0.818481 0.780245
vt 0.173224 0.251884
vt 0.173224 0.262534
vt 0.000811 0.262533
vt 0.000811 0.251883
vt 0.738866 0.163479
vt 0.736059 0.166899
vt 0.173224 0.273184
vt 0.000811 0.273183
vt 0.747000 0.168913
vt 0.744914 0.172816
vt 0.536715 0.267114
vt 0.364302 0.267112
vt 0.536715 0.276896
vt 0.364302 0.276894
vt 0.756037 0.172657
vt 0.754753 0.176891
vt 0.812169 0.800055
vt 0.814077 0.790461
vt 0.818481 0.790895
vt 0.816403 0.801340
vt 0.173224 0.283833
vt 0.000811 0.283833
vt 0.173224 0.294483
vt 0.000811 0.294483
vt 0.808425 0.809093
vt 0.812328 0.811179
vt 0.765632 0.174565
vt 0.765198 0.178969
vt 0.775414 0.174565
vt 0.775848 0.178969
vt 0.173223 0.305133
vt 0.000811 0.305133
vt 0.364302 0.286677
vt 0.536715 0.286678
vt 0.536715 0.296460
vt 0.364302 0.296459
vt 0.806411 0.820034
vt 0.802990 0.817227
vt 0.536714 0.306242
vt 0.364302 0.306242
vt 0.796073 0.824144
vt 0.798880 0.827564
vt 0.173223 0.315783
vt 0.000810 0.315782
vt 0.787940 0.829579
vt 0.790026 0.833481
vt 0.173223 0.326432
vt 0.000810 0.326432
vt 0.794046 0.168913
vt 0.796132 0.172816
vt 0.786293 0.176891
vt 0.785008 0.172657
vt 0.536714 0.316025
vt 0.364302 0.316024
vt 0.536714 0.325807
vt 0.364302 0.325807
vt 0.802179 0.163479
vt 0.804987 0.166899
vt 0.780186 0.837557
vt 0.778902 0.833322
vt 0.536714 0.335589
vt 0.364302 0.335589
vt 0.769308 0.835231
vt 0.769741 0.839634
vt 0.173223 0.337082
vt 0.173223 0.347732
vt 0.000810 0.347732
vt 0.000810 0.337082
vt 0.809096 0.156561
vt 0.812517 0.159369
vt 0.814531 0.148428
vt 0.818434 0.150514
vt 0.173223 0.358381
vt 0.000810 0.358381
vt 0.536714 0.345371
vt 0.364302 0.345372
vt 0.759525 0.835231
vt 0.759092 0.839634
vn 0.0000 -1.0000 0.0000
vn 0.1951 0.0000 -0.9808
vn 0.0000 0.0000 -1.0000
vn -0.1951 0.0000 -0.9808
vn -0.1951 -0.0000 0.9808
vn -0.0000 0.0000 1.0000
vn 0.1951 0.0000 0.9808
vn -0.0000 1.0000 -0.0000
vn 0.3827 0.0000 0.9239
vn -0.3827 0.0000 -0.9239
vn -0.5556 0.0000 -0.8315
vn 0.5556 0.0000 0.8315
vn 0.7071 -0.0000 0.7071
vn 0.8315 -0.0000 0.5556
vn -0.7071 0.0000 -0.7071
vn -0.8315 0.0000 -0.5556
vn -0.9239 0.0000 -0.3827
vn 0.9239 -0.0000 0.3827
vn 0.9808 -0.0000 0.1951
vn -0.9808 -0.0000 -0.1951
vn -1.0000 -0.0000 0.0000
vn -0.9808 -0.0000 0.1951
vn 1.0000 0.0000 -0.0000
vn 0.9808 0.0000 -0.1951
vn 0.9239 0.0000 -0.3827
vn -0.9239 0.0000 0.3827
vn -0.8315 0.0000 0.5556
vn 0.8315 0.0000 -0.5556
vn 0.7071 0.0000 -0.7071
vn 0.5556 0.0000 -0.8315
vn -0.7071 0.0000 0.7071
vn -0.5556 0.0000 0.8315
vn -0.3827 0.0000 0.9239
vn 0.3827 0.0000 -0.9239
usemtl None
s 1
f 5/1/1 1/2/1 2/3/1 6/4/1
f 2/5/2 1/6/3 3/7/3 128/8/2
f 1/6/3 4/9/4 12/10/4 3/7/3
f 5/1/1 7/11/1 4/12/1 1/2/1
f 6/13/5 9/14/5 8/15/6 5/16/6
f 5/16/6 8/15/6 10/17/7 7/18/7
f 8/19/8 9/20/8 128/21/8 3/22/8
f 8/19/8 3/22/8 12/23/8 10/24/8
f 10/24/8 12/23/8 13/25/8 11/26/8
f 7/18/7 10/17/7 11/27/9 17/28/9
f 4/9/4 15/29/10 13/30/10 12/10/4
f 15/29/10 16/31/11 14/32/11 13/30/10
f 11/26/8 13/25/8 14/33/8 20/34/8
f 17/35/1 18/36/1 16/37/1 15/38/1
f 7/11/1 17/35/1 15/38/1 4/12/1
f 17/28/9 11/27/9 20/39/12 18/40/12
f 18/40/12 20/39/12 21/41/13 19/42/13
f 19/43/1 25/44/1 16/37/1 18/36/1
f 20/34/8 14/33/8 23/45/8 21/46/8
f 19/42/13 21/41/13 22/47/14 28/48/14
f 21/46/8 23/45/8 24/49/8 22/50/8
f 25/51/15 26/52/16 24/53/16 23/54/15
f 16/31/11 25/51/15 23/54/15 14/32/11
f 19/43/1 28/55/1 26/56/1 25/44/1
f 29/57/1 27/58/1 26/56/1 28/55/1
f 26/52/16 27/59/17 33/60/17 24/53/16
f 28/48/14 22/47/14 31/61/18 29/62/18
f 29/62/18 31/61/18 32/63/19 30/64/19
f 29/57/1 30/65/1 36/66/1 27/58/1
f 31/67/8 33/68/8 34/69/8 32/70/8
f 31/67/8 22/50/8 24/49/8 33/68/8
f 27/59/17 36/71/20 34/72/20 33/60/17
f 32/70/8 34/69/8 35/73/8 41/74/8
f 36/71/20 37/75/21 35/76/21 34/72/20
f 39/77/1 37/78/1 36/66/1 30/65/1
f 39/77/1 40/79/1 38/80/1 37/78/1
f 37/75/21 38/81/22 44/82/22 35/76/21
f 39/83/23 41/84/23 42/85/24 40/86/24
f 30/64/19 32/63/19 41/84/23 39/83/23
f 41/74/8 35/73/8 44/87/8 42/88/8
f 40/86/24 42/85/24 43/89/25 49/90/25
f 43/91/8 42/88/8 44/87/8 45/92/8
f 38/81/22 47/93/26 45/94/26 44/82/22
f 43/91/8 45/92/8 46/95/8 52/96/8
f 47/93/26 48/97/27 46/98/27 45/94/26
f 49/99/1 50/100/1 48/101/1 47/102/1
f 49/99/1 47/102/1 38/80/1 40/79/1
f 49/90/25 43/89/25 52/103/28 50/104/28
f 50/104/28 52/103/28 53/105/29 51/106/29
f 50/100/1 51/107/1 57/108/1 48/101/1
f 52/96/8 46/95/8 55/109/8 53/110/8
f 51/106/29 53/105/29 54/111/30 60/112/30
f 53/110/8 55/109/8 56/113/8 54/114/8
f 57/115/31 58/116/32 56/117/32 55/118/31
f 48/97/27 57/115/31 55/118/31 46/98/27
f 51/107/1 60/119/1 58/120/1 57/108/1
f 61/121/1 59/122/1 58/120/1 60/119/1
f 58/116/32 59/123/33 65/124/33 56/117/32
f 60/112/30 54/111/30 63/125/34 61/126/34
f 61/126/34 63/125/34 64/127/2 62/128/2
f 62/129/1 68/130/1 59/122/1 61/121/1
f 64/131/8 63/132/8 65/133/8 66/134/8
f 63/132/8 54/114/8 56/113/8 65/133/8
f 59/123/33 68/135/5 66/136/5 65/124/33
f 68/137/5 69/138/6 67/139/6 66/140/5
f 64/131/8 66/134/8 67/141/8 73/142/8
f 71/143/1 69/144/1 68/130/1 62/129/1
f 71/143/1 72/145/1 70/146/1 69/144/1
f 69/138/6 70/147/7 76/148/7 67/139/6
f 71/149/3 73/150/3 74/151/4 72/152/4
f 62/153/2 64/154/2 73/150/3 71/149/3
f 73/142/8 67/141/8 76/155/8 74/156/8
f 72/152/4 74/151/4 75/157/10 81/158/10
f 74/156/8 76/155/8 77/159/8 75/160/8
f 70/147/7 79/161/9 77/162/9 76/148/7
f 84/163/8 75/160/8 77/159/8 78/164/8
f 79/161/9 80/165/12 78/166/12 77/162/9
f 82/167/1 80/168/1 79/169/1 81/170/1
f 72/145/1 81/170/1 79/169/1 70/146/1
f 81/158/10 75/157/10 84/171/11 82/172/11
f 82/172/11 84/171/11 85/173/15 83/174/15
f 82/167/1 83/175/1 89/176/1 80/168/1
f 84/163/8 78/164/8 87/177/8 85/178/8
f 83/174/15 85/173/15 86/179/16 92/180/16
f 86/181/8 85/178/8 87/177/8 88/182/8
f 89/183/13 90/184/14 88/185/14 87/186/13
f 80/165/12 89/183/13 87/186/13 78/166/12
f 92/187/1 90/188/1 89/176/1 83/175/1
f 90/184/14 91/189/18 97/190/18 88/185/14
f 93/191/1 91/192/1 90/188/1 92/187/1
f 92/180/16 86/179/16 95/193/17 93/194/17
f 93/194/17 95/193/17 96/195/20 94/196/20
f 94/197/1 100/198/1 91/192/1 93/191/1
f 96/199/8 95/200/8 97/201/8 98/202/8
f 95/200/8 86/181/8 88/182/8 97/201/8
f 91/189/18 100/203/19 98/204/19 97/190/18
f 100/203/19 101/205/23 99/206/23 98/204/19
f 105/207/8 96/199/8 98/202/8 99/208/8
f 103/209/1 101/210/1 100/198/1 94/197/1
f 104/211/1 102/212/1 101/210/1 103/209/1
f 101/205/23 102/213/24 108/214/24 99/206/23
f 103/215/21 105/216/21 106/217/22 104/218/22
f 94/196/20 96/195/20 105/216/21 103/215/21
f 105/207/8 99/208/8 108/219/8 106/220/8
f 104/218/22 106/217/22 107/221/26 113/222/26
f 107/223/8 106/220/8 108/219/8 109/224/8
f 102/213/24 111/225/25 109/226/25 108/214/24
f 116/227/8 107/223/8 109/224/8 110/228/8
f 111/225/25 112/229/28 110/230/28 109/226/25
f 114/231/1 112/232/1 111/233/1 113/234/1
f 113/234/1 111/233/1 102/212/1 104/211/1
f 113/222/26 107/221/26 116/235/27 114/236/27
f 114/236/27 116/235/27 117/237/31 115/238/31
f 115/239/1 121/240/1 112/232/1 114/231/1
f 116/227/8 110/228/8 119/241/8 117/242/8
f 115/238/31 117/237/31 118/243/32 124/244/32
f 118/245/8 117/242/8 119/241/8 120/246/8
f 121/247/29 122/248/30 120/249/30 119/250/29
f 112/229/28 121/247/29 119/250/29 110/230/28
f 124/251/1 122/252/1 121/240/1 115/239/1
f 124/251/1 125/253/1 123/254/1 122/252/1
f 122/248/30 123/255/34 127/256/34 120/249/30
f 124/244/32 118/243/32 126/257/33 125/258/33
f 125/258/33 126/257/33 9/14/5 6/13/5
f 6/4/1 2/3/1 123/254/1 125/253/1
f 9/20/8 126/259/8 127/260/8 128/21/8
f 118/245/8 120/246/8 127/260/8 126/259/8
f 123/255/34 2/5/2 128/8/2 127/256/34
